<svg width="13" height="13" viewBox="0 0 13 13" fill="none" xmlns="http://www.w3.org/2000/svg">
<path d="M11.6569 1.4242C12.4379 2.20524 12.4379 3.47157 11.6569 4.25262L4.27039 11.6391C3.95 11.9595 3.54855 12.1868 3.10897 12.2967L0.817966 12.8694C0.451776 12.961 0.12008 12.6293 0.211627 12.2631L0.784377 9.97208C0.894272 9.5325 1.12157 9.13105 1.44197 8.81066L8.82843 1.4242C9.60948 0.643147 10.8758 0.643147 11.6569 1.4242ZM8.12124 3.54541L2.14907 9.51776C1.95683 9.71 1.82046 9.95087 1.75452 10.2146L1.38388 11.6972L2.86643 11.3265C3.13018 11.2606 3.37105 11.1242 3.56329 10.932L9.53524 4.95941L8.12124 3.54541ZM9.53553 2.1313L8.82824 2.83841L10.2422 4.25241L10.9497 3.54552C11.3403 3.15499 11.3403 2.52183 10.9497 2.1313C10.5592 1.74078 9.92606 1.74078 9.53553 2.1313Z" fill="#002DB4"/>
</svg>
