<svg width="12" height="13" viewBox="0 0 12 13" fill="none" xmlns="http://www.w3.org/2000/svg">
<path d="M4.5 5.08105L4.5 9.08105C4.5 9.3572 4.72386 9.58105 5 9.58105C5.27614 9.58105 5.5 9.3572 5.5 9.08105L5.5 5.08105C5.5 4.80491 5.27614 4.58105 5 4.58105C4.72386 4.58105 4.5 4.80491 4.5 5.08105ZM7 4.58105C7.27614 4.58105 7.5 4.80491 7.5 5.08105V9.08105C7.5 9.3572 7.27614 9.58105 7 9.58105C6.72386 9.58105 6.5 9.3572 6.5 9.08105V5.08105C6.5 4.80491 6.72386 4.58105 7 4.58105ZM8 2.08105H11C11.2761 2.08105 11.5 2.30491 11.5 2.58105C11.5 2.8572 11.2761 3.08105 11 3.08105H10.4475L9.69462 9.85713C9.55394 11.1232 8.48378 12.0811 7.20991 12.0811H4.79008C3.51621 12.0811 2.44605 11.1232 2.30537 9.85713L1.55247 3.08105H1C0.723858 3.08105 0.5 2.8572 0.5 2.58105C0.5 2.30491 0.723858 2.08105 1 2.08105H4C4 0.976485 4.89543 0.0810547 6 0.0810547C7.10457 0.0810547 8 0.976485 8 2.08105ZM6 1.08105C5.44772 1.08105 5 1.52877 5 2.08105H7C7 1.52877 6.55229 1.08105 6 1.08105ZM2.55863 3.08105L3.29925 9.7467C3.38366 10.5064 4.02575 11.0811 4.79008 11.0811H7.20991C7.97423 11.0811 8.61633 10.5064 8.70073 9.7467L9.44136 3.08105H2.55863Z" fill="#EE3248"/>
</svg>
