<svg height="512pt" viewBox="-96 0 512 512" width="512pt" xmlns="http://www.w3.org/2000/svg"><path d="m160 512c-88.234375 0-160-71.765625-160-160v-224c0-11.796875 9.558594-21.332031 21.332031-21.332031 11.777344 0 21.335938 9.535156 21.335938 21.332031v224c0 64.683594 52.628906 117.332031 117.332031 117.332031s117.332031-52.648437 117.332031-117.332031v-234.667969c0-41.171875-33.492187-74.664062-74.664062-74.664062-41.175781 0-74.667969 33.492187-74.667969 74.664062v213.335938c0 17.640625 14.355469 32 32 32s32-14.359375 32-32v-202.667969c0-11.796875 9.558594-21.332031 21.332031-21.332031 11.777344 0 21.335938 9.535156 21.335938 21.332031v202.667969c0 41.171875-33.496094 74.664062-74.667969 74.664062s-74.667969-33.492187-74.667969-74.664062v-213.335938c0-64.679687 52.628907-117.332031 117.335938-117.332031 64.703125 0 117.332031 52.652344 117.332031 117.332031v234.667969c0 88.234375-71.765625 160-160 160zm0 0"/></svg>