<?xml version="1.0" encoding="UTF-8"?>
<svg width="256px" height="256px" viewBox="0 0 256 256" version="1.1" xmlns="http://www.w3.org/2000/svg" xmlns:xlink="http://www.w3.org/1999/xlink">
    <title>icon-bold-complete</title>
    <g id="icon-bold-complete" stroke="none" stroke-width="1"  fill-rule="evenodd">
        <path d="M128.159574,256 C143.489362,256 157.12234,254.037978 169.058511,250.113933 C180.994681,246.189888 191.029255,240.743079 199.162234,233.773507 C207.295213,226.803935 213.468085,218.633722 217.680851,209.262869 C221.893617,199.892016 224,189.75978 224,178.866163 C224,164.341341 219.962766,152.510638 211.888298,143.374056 C203.81383,134.237474 191.351064,127.619309 174.5,123.519561 C182.223404,120.708305 188.835106,117.369938 194.335106,113.504461 C199.835106,109.638984 204.340426,105.392816 207.851064,100.765957 C211.361702,96.1390986 213.93617,91.1608328 215.574468,85.8311599 C217.212766,80.5014871 218.031915,74.9668268 218.031915,69.2271791 C218.031915,58.6849691 216.24734,49.1384123 212.678191,40.5875086 C209.109043,32.0366049 203.404255,24.7741935 195.56383,18.8002745 C187.723404,12.8263555 177.601064,8.19949668 165.196809,4.91969801 C152.792553,1.63989934 137.755319,0 120.085106,0 L120.085106,0 L26,0 L26,256 L128.159574,256 Z M116.736842,108 L86,108 L86,45 L120.578947,45 C127.215311,45 132.949362,45.525 137.7811,46.575 C142.612839,47.625 146.600478,49.375 149.744019,51.825 C152.88756,54.275 155.216108,57.5125 156.729665,61.5375 C158.243222,65.5625 159,70.6083333 159,76.675 C159,82.8583333 158.039474,87.9916667 156.118421,92.075 C154.197368,96.1583333 151.40311,99.3666667 147.735646,101.7 C144.068182,104.033333 139.614833,105.666667 134.375598,106.6 C129.136364,107.533333 123.256778,108 116.736842,108 L116.736842,108 Z M126.754386,211 L85,211 L85,147 L126.403509,147 C133.888889,147 140.087719,147.705234 145,149.115702 C149.912281,150.526171 153.859649,152.524334 156.842105,155.110193 C159.824561,157.696051 161.929825,160.869605 163.157895,164.630854 C164.385965,168.392103 165,172.623508 165,177.325069 C165,181.438935 164.473684,185.494031 163.421053,189.490358 C162.368421,193.486685 160.438596,197.071625 157.631579,200.245179 C154.824561,203.418733 150.935673,206.004591 145.964912,208.002755 C140.994152,210.000918 134.590643,211 126.754386,211 L126.754386,211 Z" id="B"  fill-rule="nonzero"></path>
    </g>
</svg>