<?xml version="1.0" encoding="UTF-8"?>
<svg width="256px" height="256px" viewBox="0 0 256 256" version="1.1" xmlns="http://www.w3.org/2000/svg" xmlns:xlink="http://www.w3.org/1999/xlink">
    <title>icon-bullet-complete</title>
    <g id="icon-bullet-complete" stroke="none" stroke-width="1"  fill-rule="evenodd">
        <path d="M256,188 L256,227 L67,227 L67,188 L256,188 Z M41,188 L41,227 L0,227 L0,188 L41,188 Z M256,109 L256,148 L67,148 L67,109 L256,109 Z M41,109 L41,148 L0,148 L0,109 L41,109 Z M256,30 L256,69 L67,69 L67,30 L256,30 Z M41,30 L41,69 L0,69 L0,30 L41,30 Z" id="Combined-Shape"  fill-rule="nonzero"></path>
    </g>
</svg>