<?xml version="1.0" encoding="UTF-8"?>
<svg width="256px" height="256px" viewBox="0 0 256 256" version="1.1" xmlns="http://www.w3.org/2000/svg" xmlns:xlink="http://www.w3.org/1999/xlink">
    <title>icon-list-complete</title>
    <g id="icon-list-complete" stroke="none" stroke-width="1" fill-rule="evenodd">
        <path d="M15.9026369,188 C18.5422583,188 20.8248817,188.27794 22.7505071,188.833819 C24.6761325,189.389699 26.2555781,190.159378 27.4888438,191.142857 C28.7221095,192.126336 29.6308316,193.280855 30.2150101,194.606414 C30.7991886,195.931973 31.0912779,197.364431 31.0912779,198.90379 C31.0912779,201.469388 30.5179175,203.511176 29.3711968,205.029155 C28.224476,206.547133 26.8505747,207.733722 25.2494929,208.588921 C27.1534821,209.358601 28.7545639,210.51312 30.0527383,212.052478 C31.3509128,213.591837 32,215.665695 32,218.274052 C32,220.326531 31.6538201,222.186589 30.9614604,223.854227 C30.2691007,225.521866 29.2305612,226.965015 27.8458418,228.183673 C26.4611224,229.402332 24.7085869,230.343052 22.5882353,231.005831 C20.4678837,231.66861 17.9580798,232 15.0588235,232 C11.8999324,232 9.40094659,231.72206 7.56186613,231.166181 C5.72278567,230.610301 4.21906694,230.011662 3.05070994,229.370262 C2.14198783,228.899903 1.42799189,228.290573 0.90872211,227.542274 C0.389452333,226.793975 0.129817444,226.056365 0.129817444,225.329446 C0.129817444,224.474247 0.346179851,223.512148 0.778904665,222.443149 C1.21162948,221.37415 2.07707911,219.856171 3.37525355,217.889213 C4.63015551,219.000972 6.1663286,220.005831 7.98377282,220.90379 C9.80121704,221.801749 11.8133874,222.250729 14.020284,222.250729 C15.4915483,222.250729 16.6707235,221.876579 17.5578093,221.12828 C18.4448952,220.379981 18.8884381,219.278912 18.8884381,217.825073 C18.8884381,216.884354 18.7261663,216.136054 18.4016227,215.580175 C18.0770791,215.024295 17.6768087,214.596696 17.2008114,214.297376 C16.7248141,213.998056 16.1947262,213.794947 15.6105477,213.688047 C15.0263692,213.581147 14.4530088,213.527697 13.8904665,213.527697 L13.8904665,213.527697 L9.28194726,213.527697 L9.28194726,204.676385 L13.8255578,204.676385 L14.0831643,204.669704 C15.020284,204.620708 15.8755916,204.302235 16.6490872,203.714286 C17.4929006,203.072886 17.9148073,202.153547 17.9148073,200.956268 C17.9148073,199.758989 17.525355,198.90379 16.7464503,198.390671 C15.9675456,197.877551 14.9506423,197.620991 13.6957404,197.620991 C12.0513861,197.620991 10.4719405,197.941691 8.95740365,198.58309 C7.4428668,199.22449 5.71196755,200.229349 3.76470588,201.597668 C2.59634888,200.272109 1.67680865,199.09621 1.00608519,198.069971 C0.335361731,197.043732 0,196.060253 0,195.119534 C0,194.307094 0.227180527,193.622935 0.681541582,193.067055 C1.13590264,192.511176 1.66599053,192.019436 2.27180527,191.591837 C3.52670723,190.736638 5.29006085,189.924198 7.56186613,189.154519 C9.8336714,188.38484 12.6139283,188 15.9026369,188 Z M256,191 L256,231 L58,231 L58,191 L256,191 Z M256,110 L256,150 L58,150 L58,110 L256,110 Z M17.0752475,106 C19.1663366,106 21.1485149,106.224292 23.0217822,106.672876 C24.8950495,107.121461 26.539604,107.85842 27.9554455,108.883756 C29.3712871,109.909091 30.4930693,111.244163 31.3207921,112.888972 C32.1485149,114.53378 32.5623762,116.531048 32.5623762,118.880775 C32.5623762,120.418778 32.3445545,121.903378 31.9089109,123.334575 C31.4732673,124.765772 30.8742574,126.143567 30.1118812,127.467958 C29.349505,128.79235 28.4673267,130.074019 27.4653465,131.312966 C26.4633663,132.551913 25.3960396,133.726776 24.2633663,134.837556 C23.4792079,135.606557 22.6950495,136.364878 21.9108911,137.112519 C21.1267327,137.860159 20.3207921,138.575758 19.4930693,139.259314 L19.4930693,139.259314 L27.0079208,139.259314 L27.3805372,139.263765 C29.4640295,139.314201 31.0715072,139.793343 32.2029703,140.701192 C33.4009901,141.662444 34,143.147044 34,145.154993 C34,145.753105 33.9891089,146.276453 33.9673267,146.725037 C33.9455446,147.173621 33.9346535,147.568803 33.9346535,147.910581 C33.8910891,148.337804 33.8693069,148.700944 33.8693069,149 L33.8693069,149 L2.11089109,149 L2.11089109,140.4769 L2.48896747,140.195064 C3.25445545,139.617005 4.07595474,138.952629 4.95346535,138.201937 C5.97722772,137.32613 7.04455446,136.39692 8.15544554,135.414307 C9.26633663,134.431694 10.3772277,133.395678 11.4881188,132.306259 C12.5990099,131.216841 13.6772277,130.138102 14.7227723,129.070045 C16.2039604,127.532042 17.3584158,126.090164 18.1861386,124.744411 C19.0138614,123.398659 19.4277228,121.956781 19.4277228,120.418778 C19.4277228,119.564332 19.2861386,118.859414 19.0029703,118.304024 C18.719802,117.748634 18.349505,117.30005 17.8920792,116.958271 C17.4346535,116.616493 16.9118812,116.37084 16.3237624,116.221311 C15.7356436,116.071783 15.1584158,115.997019 14.5920792,115.997019 C12.849505,115.997019 11.1613861,116.402881 9.52772277,117.214605 C7.89405941,118.026329 6.42376238,118.96622 5.11683168,120.034277 C3.94059406,118.709886 2.96039604,117.460258 2.17623762,116.285395 C1.39207921,115.110532 1,114.095877 1,113.241431 C1,112.557874 1.18514851,111.959762 1.55544554,111.447094 C1.92574257,110.934426 2.43762376,110.44312 3.09108911,109.973174 C3.7009901,109.545951 4.44158416,109.097367 5.31287129,108.627422 C6.18415842,108.157476 7.1970297,107.730253 8.35148515,107.345753 C9.50594059,106.961252 10.8019802,106.640835 12.239604,106.384501 C13.6772277,106.128167 15.2891089,106 17.0752475,106 Z M256,28 L256,68 L58,68 L58,28 L256,28 Z M22.9369863,25 C24.1643836,25 25.1945205,25.1401003 26.0273973,25.4203008 C26.860274,25.7005013 27.5178082,25.9914787 28,26.2932331 L28,26.2932331 L28,68 L15.0465753,68 L15.0465753,40.0015038 L7.41917808,43.6225564 L6.9260274,42.8686015 C6.27726027,41.8581554 5.66356164,40.8270175 5.08493151,39.775188 C4.36164384,38.460401 4,37.2426065 4,36.1218045 C4,35.0010025 4.23013699,34.1496241 4.69041096,33.5676692 C5.15068493,32.9857143 6.03835616,32.3498747 7.35342466,31.6601504 L7.35342466,31.6601504 L17.1506849,26.6165414 L17.6091324,26.3866332 C18.3701674,26.0154275 19.1159817,25.7040936 19.8465753,25.4526316 C20.7232877,25.1508772 21.7534247,25 22.9369863,25 Z" id="Combined-Shape"  fill-rule="nonzero"></path>
    </g>
</svg>