<?xml version="1.0" encoding="UTF-8"?>
<svg  viewBox="0 0 17 13" version="1.1" xmlns="http://www.w3.org/2000/svg" xmlns:xlink="http://www.w3.org/1999/xlink">
    <g  fill-rule="evenodd">
        <g id="Dropdown-button-for-Send---1" transform="translate(-738.000000, -558.000000)"  >
            <path fill="#fff" d="M738,558 L747.078558,562.112601 C747.917811,561.385216 749.009329,560.945545 750.20297,560.945545 C752.853202,560.945545 755,563.11299 755,565.784653 C755,568.456317 752.853202,570.623762 750.20297,570.623762 C747.625375,570.623762 745.523996,568.573498 745.410745,566.003155 L738,569.361386 L738,564.943069 L745.808106,563.84215 C745.852926,563.739105 745.901204,563.637936 745.952791,563.538793 L738,562.418317 L738,558 Z M750.20297,562.292079 C748.298219,562.292079 746.752475,563.854855 746.752475,565.784653 C746.752475,567.714452 748.298219,569.277228 750.20297,569.277228 C752.107722,569.277228 753.653465,567.714452 753.653465,565.784653 C753.653465,563.854855 752.107722,562.292079 750.20297,562.292079 Z M750.512607,563.217822 C750.647418,563.217822 750.757719,563.312388 750.757719,563.427969 L750.757719,565.909452 L752.122178,566.760546 C752.232478,566.828844 752.254947,566.960186 752.175285,567.054752 L751.791276,567.508318 C751.711615,567.601133 751.558419,567.622148 751.448119,567.55385 L749.713949,566.473346 C749.650628,566.433067 749.613861,566.370023 749.613861,566.303477 L749.613861,563.427969 C749.613861,563.312388 749.724162,563.217822 749.858974,563.217822 L750.512607,563.217822 Z" ></path>
        </g>
    </g>
</svg>