<?xml version="1.0" encoding="UTF-8"?>
<svg width="256px" height="256px" viewBox="0 0 256 256" version="1.1" xmlns="http://www.w3.org/2000/svg" xmlns:xlink="http://www.w3.org/1999/xlink">
    <title>icon-underline-complete</title>
    <g id="icon-underline-complete" stroke="none" stroke-width="1"  fill-rule="evenodd">
        <path d="M218,232.537 L218,255.861 L39,255.861 L39,232.537 L218,232.537 Z M85.0543131,0.199 L85.0543131,123.091057 L85.0584142,123.932008 C85.1267664,130.910932 86.0495208,137.164899 87.8266773,142.693908 C89.6749201,148.444078 92.3525027,153.338851 95.8594249,157.378226 C99.3663472,161.417601 103.655218,164.506536 108.726038,166.645029 C113.796858,168.783521 119.554846,169.852768 126,169.852768 C132.445154,169.852768 138.203142,168.783521 143.273962,166.645029 C148.344782,164.506536 152.633653,161.441363 156.140575,157.449509 C159.647497,153.457656 162.32508,148.586644 164.173323,142.836475 C166.021565,137.086305 166.945687,130.552021 166.945687,123.233623 L166.945687,123.233623 L166.945687,0.199 L215,0.199 L215,123.233623 L214.995482,124.263974 C214.887062,136.600688 212.827066,147.947665 208.815495,158.304906 C204.692492,168.949849 198.792332,178.121607 191.115016,185.820181 C183.4377,193.518756 174.101704,199.506536 163.107029,203.783521 C152.112354,208.060507 139.743344,210.199 126,210.199 C112.161874,210.199 99.7454739,208.060507 88.7507987,203.783521 C77.7561235,199.506536 68.4201278,193.518756 60.7428115,185.820181 C53.0654952,178.121607 47.1890309,168.949849 43.1134185,158.304906 C39.0378062,147.659964 37,135.969536 37,123.233623 L37,123.233623 L37,0.199 L85.0543131,0.199 Z" id="Combined-Shape" fill-rule="nonzero"></path>
    </g>
</svg>