<svg width="17" height="17" viewBox="0 0 17 17" fill="none" xmlns="http://www.w3.org/2000/svg">
<circle cx="8.5" cy="8.5" r="8.5" fill="#EB001B"/>
<path d="M10.6172 8.75L13.3516 6.01562C13.707 5.6875 13.707 5.14062 13.3516 4.8125L12.75 4.21094C12.4219 3.85547 11.875 3.85547 11.5469 4.21094L8.8125 6.94531L6.05078 4.21094C5.72266 3.85547 5.17578 3.85547 4.84766 4.21094L4.24609 4.8125C3.89062 5.14062 3.89062 5.6875 4.24609 6.01562L6.98047 8.75L4.24609 11.5117C3.89062 11.8398 3.89062 12.3867 4.24609 12.7148L4.84766 13.3164C5.17578 13.6719 5.72266 13.6719 6.05078 13.3164L8.8125 10.582L11.5469 13.3164C11.875 13.6719 12.4219 13.6719 12.75 13.3164L13.3516 12.7148C13.707 12.3867 13.707 11.8398 13.3516 11.5117L10.6172 8.75Z" fill="white"/>
</svg>
