<svg
  width="4"
  height="14"
  viewBox="0 0 4 14"
  fill="none"
  xmlns="http://www.w3.org/2000/svg"
>
  <path
    d="M2 3.5C1.0335 3.5 0.25 2.7165 0.25 1.75C0.25 0.783502 1.0335 -1.18742e-07 2 -7.64949e-08C2.9665 -3.42479e-08 3.75 0.783502 3.75 1.75C3.75 2.7165 2.9665 3.5 2 3.5ZM2 14C1.0335 14 0.249999 13.2165 0.249999 12.25C0.25 11.2835 1.0335 10.5 2 10.5C2.9665 10.5 3.75 11.2835 3.75 12.25C3.75 13.2165 2.9665 14 2 14ZM0.25 7C0.25 7.9665 1.0335 8.75 2 8.75C2.9665 8.75 3.75 7.9665 3.75 7C3.75 6.0335 2.9665 5.25 2 5.25C1.0335 5.25 0.25 6.0335 0.25 7Z"
    fill="#636671"
  />
</svg>
<svg
  width="4"
  height="14"
  viewBox="0 0 4 14"
  fill="none"
  xmlns="http://www.w3.org/2000/svg"
  style="margin-left: 2px;"
>
  <path
    d="M2 3.5C1.0335 3.5 0.25 2.7165 0.25 1.75C0.25 0.783502 1.0335 -1.18742e-07 2 -7.64949e-08C2.9665 -3.42479e-08 3.75 0.783502 3.75 1.75C3.75 2.7165 2.9665 3.5 2 3.5ZM2 14C1.0335 14 0.249999 13.2165 0.249999 12.25C0.25 11.2835 1.0335 10.5 2 10.5C2.9665 10.5 3.75 11.2835 3.75 12.25C3.75 13.2165 2.9665 14 2 14ZM0.25 7C0.25 7.9665 1.0335 8.75 2 8.75C2.9665 8.75 3.75 7.9665 3.75 7C3.75 6.0335 2.9665 5.25 2 5.25C1.0335 5.25 0.25 6.0335 0.25 7Z"
    fill="#636671"
  />
</svg>
