<svg width="16" height="16" viewBox="0 0 16 16" fill="none" xmlns="http://www.w3.org/2000/svg">
<path d="M11.2452 0.817058C12.332 -0.269749 14.0941 -0.269749 15.1809 0.817058C16.2224 1.85858 16.2658 3.52026 15.3111 4.61346L15.1809 4.75273L5.57506 14.3586C5.36997 14.5636 5.12323 14.7212 4.85236 14.821L4.68708 14.8739L0.632111 15.9798C0.285522 16.0743 -0.0345414 15.7857 0.00300655 15.4452L0.0181704 15.3658L1.12407 11.3109C1.20039 11.031 1.33646 10.7718 1.52212 10.5508L1.63939 10.4229L11.2452 0.817058ZM10.385 3.09195L2.34649 11.13C2.2542 11.2223 2.18117 11.3314 2.13111 11.4511L2.08884 11.574L1.2122 14.7847L4.42397 13.9091C4.50791 13.8862 4.58815 13.8526 4.66278 13.8093L4.77028 13.7372L4.86796 13.6515L12.906 5.61295L10.385 3.09195ZM14.4738 1.52417C13.8162 0.866565 12.7727 0.830031 12.0722 1.41457L11.9523 1.52417L11.092 2.38495L13.613 4.90595L14.4738 4.04563C15.1314 3.38803 15.1679 2.34455 14.5834 1.64407L14.4738 1.52417Z" fill="#ffffff"/>
</svg>
