<svg width="20" height="14" viewBox="0 0 20 14" fill="none" xmlns="http://www.w3.org/2000/svg">
<path fill-rule="evenodd" clip-rule="evenodd" d="M9.707 0.293C9.89447 0.480528 9.99979 0.734836 9.99979 1C9.99979 1.26516 9.89447 1.51947 9.707 1.707L7.414 4H13C14.8565 4 16.637 4.7375 17.9497 6.05025C19.2625 7.36301 20 9.14348 20 11V13C20 13.2652 19.8946 13.5196 19.7071 13.7071C19.5196 13.8946 19.2652 14 19 14C18.7348 14 18.4804 13.8946 18.2929 13.7071C18.1054 13.5196 18 13.2652 18 13V11C18 9.67392 17.4732 8.40215 16.5355 7.46447C15.5979 6.52678 14.3261 6 13 6H7.414L9.707 8.293C9.80251 8.38525 9.87869 8.49559 9.9311 8.6176C9.98351 8.7396 10.0111 8.87082 10.0123 9.0036C10.0134 9.13638 9.9881 9.26806 9.93782 9.39095C9.88754 9.51385 9.81329 9.6255 9.7194 9.71939C9.6255 9.81329 9.51385 9.88754 9.39095 9.93782C9.26806 9.9881 9.13638 10.0134 9.0036 10.0123C8.87082 10.0111 8.7396 9.98351 8.6176 9.9311C8.49559 9.87869 8.38525 9.80251 8.293 9.707L4.293 5.707C4.10553 5.51947 4.00021 5.26516 4.00021 5C4.00021 4.73484 4.10553 4.48053 4.293 4.293L8.293 0.293C8.48053 0.105529 8.73484 0.000213623 9 0.000213623C9.26516 0.000213623 9.51947 0.105529 9.707 0.293Z" fill="black"/>
<path d="M5.99957 0.999786C5.99957 0.734622 5.89426 0.480314 5.70679 0.292786C5.51926 0.105315 5.26495 0 4.99979 0C4.73462 0 4.48031 0.105315 4.29279 0.292786L0.292786 4.29279C0.105315 4.48031 0 4.73462 0 4.99979C0 5.26495 0.105315 5.51926 0.292786 5.70679L4.29279 9.70679C4.38503 9.8023 4.49538 9.87848 4.61738 9.93089C4.73939 9.9833 4.87061 10.0109 5.00339 10.012C5.13616 10.0132 5.26784 9.98789 5.39074 9.93761C5.51364 9.88733 5.62529 9.81307 5.71918 9.71918C5.81307 9.62529 5.88733 9.51364 5.93761 9.39074C5.98789 9.26784 6.01319 9.13616 6.01204 9.00339C6.01088 8.87061 5.9833 8.73939 5.93089 8.61738C5.87848 8.49538 5.8023 8.38503 5.70679 8.29279L3.41379 5.99979C3.27586 5.83319 3 5.4 3 5C3 4.6 3.27586 4.16652 3.41379 3.99979L5.70679 1.70679C5.89426 1.51926 5.99957 1.26495 5.99957 0.999786Z" fill="black"/>
</svg>
