<svg width="12" height="9" viewBox="0 0 12 9" fill="none" xmlns="http://www.w3.org/2000/svg">
<path d="M11.7656 2.97656C11.2266 3.39844 10.5469 3.91406 8.15625 5.64844C7.6875 6 6.82031 6.77344 6 6.77344C5.15625 6.77344 4.3125 6 3.82031 5.64844C1.42969 3.91406 0.75 3.39844 0.210938 2.97656C0.117188 2.90625 0 2.97656 0 3.09375V7.875C0 8.50781 0.492188 9 1.125 9H10.875C11.4844 9 12 8.50781 12 7.875V3.09375C12 2.97656 11.8594 2.90625 11.7656 2.97656ZM6 6C6.53906 6.02344 7.3125 5.32031 7.71094 5.03906C10.8281 2.78906 11.0625 2.57812 11.7656 2.01562C11.9062 1.92188 12 1.75781 12 1.57031V1.125C12 0.515625 11.4844 0 10.875 0H1.125C0.492188 0 0 0.515625 0 1.125V1.57031C0 1.75781 0.0703125 1.92188 0.210938 2.01562C0.914062 2.57812 1.14844 2.78906 4.26562 5.03906C4.66406 5.32031 5.4375 6.02344 6 6Z" />
</svg>
