<svg width="12" height="13" viewBox="0 0 12 13" fill="none" xmlns="http://www.w3.org/2000/svg">
<path d="M4.125 5.5625H7.875C8.0625 5.5625 8.25 5.39844 8.25 5.1875V4.8125C8.25 4.625 8.0625 4.4375 7.875 4.4375H4.125C3.91406 4.4375 3.75 4.625 3.75 4.8125V5.1875C3.75 5.39844 3.91406 5.5625 4.125 5.5625ZM3.75 7.4375C3.75 7.64844 3.91406 7.8125 4.125 7.8125H7.875C8.0625 7.8125 8.25 7.64844 8.25 7.4375V7.0625C8.25 6.875 8.0625 6.6875 7.875 6.6875H4.125C3.91406 6.6875 3.75 6.875 3.75 7.0625V7.4375ZM6 10.2969C5.60156 10.2969 5.22656 10.1797 4.89844 9.92188L0 6.38281V11.375C0 12.0078 0.492188 12.5 1.125 12.5H10.875C11.4844 12.5 12 12.0078 12 11.375V6.38281L7.07812 9.92188C6.75 10.1797 6.375 10.2969 6 10.2969ZM11.5547 4.32031C11.3438 4.17969 11.1562 4.01562 10.875 3.80469V2.75C10.875 2.14062 10.3594 1.625 9.75 1.625H7.92188C7.85156 1.57812 7.78125 1.53125 7.71094 1.48438C7.3125 1.20312 6.53906 0.5 6 0.5C5.4375 0.5 4.66406 1.20312 4.26562 1.48438C4.19531 1.53125 4.125 1.57812 4.05469 1.625H2.25C1.61719 1.625 1.125 2.14062 1.125 2.75V3.80469C0.820312 4.01562 0.632812 4.17969 0.421875 4.32031C0.164062 4.53125 0 4.85938 0 5.21094V5.46875L2.25 7.08594V2.75H9.75V7.08594L12 5.46875V5.21094C12 4.85938 11.8359 4.55469 11.5547 4.32031Z" />
</svg>
